<?xml version="1.0" encoding="UTF-8" standalone="no"?>
<svg
   version="1.0"
   width="512pt"
   height="512pt"
   viewBox="0 0 512 512"
   preserveAspectRatio="xMidYMid"
   id="svg2"
   xmlns="http://www.w3.org/2000/svg"
   xmlns:svg="http://www.w3.org/2000/svg">
  <defs
     id="defs2" />
  <rect
     style="fill:#ffd42a;stroke-width:0.75"
     id="rect2"
     width="649.44135"
     height="586.91174"
     x="-14.23942"
     y="-4.9528413" />
  <g
     transform="matrix(0.1,0,0,-0.1,0,512)"
     fill="#000000"
     stroke="none"
     id="g2">
    <path
       d="M 0,2560 V 0 H 2560 5120 V 2560 5120 H 2560 0 Z m 2637,1958 c 50,-47 53,-61 53,-298 0,-187 -3,-228 -17,-257 -20,-44 -66,-73 -115,-73 -48,0 -103,47 -118,98 -5,20 -10,127 -10,237 0,176 3,205 20,242 36,81 128,106 187,51 z M 1298,3985 c 41,-17 314,-282 339,-329 21,-40 19,-113 -5,-145 -10,-14 -36,-32 -56,-40 -70,-26 -103,-7 -269,158 -148,146 -187,197 -187,247 0,42 29,91 63,108 41,20 68,20 115,1 z m 2636,1 c 46,-19 66,-52 66,-106 0,-65 -33,-111 -192,-267 -142,-139 -178,-160 -247,-147 -48,10 -91,65 -91,117 0,62 36,111 193,264 156,152 193,171 271,139 z M 2801,3516 c 360,-91 631,-367 721,-733 30,-124 30,-322 0,-446 -74,-299 -271,-543 -544,-672 -127,-60 -252,-87 -408,-89 -228,-1 -392,49 -577,176 -84,58 -201,177 -256,261 -261,394 -203,927 135,1253 157,151 336,240 553,274 96,15 267,4 376,-24 z M 1146,2671 c 79,-36 106,-109 65,-177 -35,-58 -64,-64 -311,-64 -170,0 -227,3 -248,14 -106,55 -105,178 1,226 37,17 66,20 247,20 178,0 210,-3 246,-19 z m 3306,7 c 84,-25 122,-113 79,-184 -35,-58 -64,-64 -313,-64 -205,0 -226,2 -256,20 -96,59 -90,175 11,221 37,16 67,19 241,19 124,0 213,-4 238,-12 z M 1609,1624 c 54,-45 59,-112 12,-187 -28,-45 -270,-281 -308,-301 -41,-20 -112,-21 -141,0 -49,34 -64,97 -37,160 20,48 276,308 329,334 57,28 107,26 145,-6 z m 2038,15 c 38,-14 322,-296 339,-336 8,-18 14,-51 14,-74 0,-33 -6,-47 -34,-75 -29,-29 -41,-34 -80,-34 -26,0 -59,6 -74,14 -41,22 -319,307 -332,339 -42,115 53,210 167,166 z M 2630,1202 c 55,-40 60,-68 60,-305 0,-184 -3,-225 -17,-254 -20,-44 -66,-73 -115,-73 -48,0 -103,47 -118,98 -5,20 -10,127 -10,237 0,188 1,204 23,245 38,76 113,98 177,52 z"
       id="path1" />
    <path
       d="m 2773,2944 -362,-237 -237,-364 c -192,-296 -236,-368 -227,-382 6,-9 19,-16 29,-15 11,0 180,105 376,233 l 357,232 237,366 c 191,293 235,369 227,382 -6,9 -16,17 -24,18 -8,2 -177,-104 -376,-233 z m 235,54 c -8,-13 -86,-132 -173,-266 l -158,-244 -93,93 c -52,51 -90,96 -86,100 9,9 516,339 521,339 2,0 -3,-10 -11,-22 z"
       id="path2" />
  </g>
</svg>
